<svg xmlns="http://www.w3.org/2000/svg" viewBox="0 0 1024 768" preserveAspectRatio="xMidYMid meet">
<rect width="100%" height="100%" fill="#f4ecd8"/>
<g stroke="#6b5a3e" stroke-width="1.2" fill="none" stroke-linecap="round" stroke-linejoin="round" opacity="0.85">
  <polyline points="828,15 883,14"/>
  <polyline points="690,17 828,15"/>
  <polyline points="590,18 690,17"/>
  <polyline points="518,20 590,18"/>
  <polyline points="480,20 518,20"/>
  <polyline points="470,21 480,20"/>
  <polyline points="333,23 470,21"/>
  <polyline points="263,24 333,23"/>
  <polyline points="223,25 263,24"/>
  <polyline points="210,25 223,25"/>
  <polyline points="120,27 210,25"/>
  <polyline points="23,29 120,27"/>
  <polyline points="403,38 470,21"/>
  <polyline points="883,14 993,13 994,42"/>
  <polyline points="341,44 333,23"/>
  <polyline points="126,45 210,25"/>
  <polyline points="120,27 126,45"/>
  <polyline points="348,52 403,38"/>
  <polyline points="348,52 341,44"/>
  <polyline points="870,53 948,45 994,42"/>
  <polyline points="870,53 874,27 883,14"/>
  <polyline points="854,54 870,53"/>
  <polyline points="854,54 828,15"/>
  <polyline points="297,64 294,55 341,44"/>
  <polyline points="790,65 854,54"/>
  <polyline points="790,65 777,32 753,36 746,32 742,23"/>
  <polyline points="44,66 126,45"/>
  <polyline points="279,68 297,64"/>
  <polyline points="263,24 279,68"/>
  <polyline points="24,70 44,66"/>
  <polyline points="24,70 23,29"/>
  <polyline points="759,71 790,65"/>
  <polyline points="721,76 759,71"/>
  <polyline points="721,76 690,17"/>
  <polyline points="241,77 279,68"/>
  <polyline points="241,77 223,25"/>
  <polyline points="994,42 996,83"/>
  <polyline points="672,83 710,78 721,76"/>
  <polyline points="351,87 354,80 348,52"/>
  <polyline points="985,87 996,83"/>
  <polyline points="934,80 975,69 985,87"/>
  <polyline points="626,90 652,87 672,83"/>
  <polyline points="626,90 590,18"/>
  <polyline points="514,92 480,20"/>
  <polyline points="313,95 351,87"/>
  <polyline points="310,96 313,95"/>
  <polyline points="297,64 310,96"/>
  <polyline points="145,99 241,77"/>
  <polyline points="126,45 145,99"/>
  <polyline points="561,100 587,96 626,90"/>
  <polyline points="557,100 561,100"/>
  <polyline points="672,83 683,120 686,120"/>
  <polyline points="742,124 721,76"/>
  <polyline points="746,138 787,124"/>
  <polyline points="742,124 746,138"/>
  <polyline points="664,152 731,127 742,124"/>
  <polyline points="664,152 626,90"/>
  <polyline points="746,138 754,156 759,162"/>
  <polyline points="637,163 664,152"/>
  <polyline points="689,192 664,152"/>
  <polyline points="557,100 518,20"/>
  <polyline points="996,83 996,107"/>
  <polyline points="985,87 996,107"/>
  <polyline points="492,110 557,100"/>
  <polyline points="44,66 75,110"/>
  <polyline points="310,96 252,111"/>
  <polyline points="252,111 241,77"/>
  <polyline points="472,113 492,110"/>
  <polyline points="78,114 145,99"/>
  <polyline points="75,110 78,114"/>
  <polyline points="854,54 888,116"/>
  <polyline points="441,118 472,113"/>
  <polyline points="403,38 441,118"/>
  <polyline points="996,107 997,118"/>
  <polyline points="759,71 787,124"/>
  <polyline points="390,125 441,118"/>
  <polyline points="382,97 390,125"/>
  <polyline points="75,110 26,126"/>
  <polyline points="26,126 24,70"/>
  <polyline points="367,129 390,125"/>
  <polyline points="363,129 367,129"/>
  <polyline points="351,87 363,129"/>
  <polyline points="324,136 363,129"/>
  <polyline points="313,95 324,136"/>
  <polyline points="948,137 997,118"/>
  <polyline points="948,137 927,102 888,116"/>
  <polyline points="293,140 324,136"/>
  <polyline points="31,142 57,136"/>
  <polyline points="26,126 31,142"/>
  <polyline points="264,145 293,140"/>
  <polyline points="264,145 252,111"/>
  <polyline points="787,124 799,147"/>
  <polyline points="472,113 483,151"/>
  <polyline points="219,153 264,145"/>
  <polyline points="163,162 219,153"/>
  <polyline points="145,99 163,162"/>
  <polyline points="759,162 799,147"/>
  <polyline points="888,116 849,132 869,166"/>
  <polyline points="122,167 163,162"/>
  <polyline points="115,168 122,167"/>
  <polyline points="78,114 115,168"/>
  <polyline points="958,174 968,170 948,137"/>
  <polyline points="608,175 637,163"/>
  <polyline points="561,100 608,175"/>
  <polyline points="759,162 765,176"/>
  <polyline points="438,160 391,177"/>
  <polyline points="367,129 391,177"/>
  <polyline points="637,163 643,173 636,177"/>
  <polyline points="43,180 115,168"/>
  <polyline points="31,142 43,180"/>
  <polyline points="818,184 869,166"/>
  <polyline points="799,147 818,184"/>
  <polyline points="27,184 43,180"/>
  <polyline points="27,184 26,126"/>
  <polyline points="928,185 958,174"/>
  <polyline points="365,186 391,177"/>
  <polyline points="365,186 348,155"/>
  <polyline points="608,175 555,196"/>
  <polyline points="897,197 928,185"/>
  <polyline points="765,176 774,200 818,184"/>
  <polyline points="869,166 888,200 897,197"/>
  <polyline points="530,201 509,163 492,110"/>
  <polyline points="696,201 765,176"/>
  <polyline points="689,192 696,201"/>
  <polyline points="659,204 689,192"/>
  <polyline points="293,140 300,181 298,185 311,206 365,186"/>
  <polyline points="818,184 822,191 835,214"/>
  <polyline points="633,215 659,204"/>
  <polyline points="633,215 608,175"/>
  <polyline points="255,220 229,178 219,153"/>
  <polyline points="181,222 178,212 163,162"/>
  <polyline points="142,230 181,222"/>
  <polyline points="122,167 128,194 133,194 142,230"/>
  <polyline points="584,234 633,215"/>
  <polyline points="424,238 530,201"/>
  <polyline points="391,177 424,238"/>
  <polyline points="775,241 781,237 780,235 835,214"/>
  <polyline points="755,235 767,230 775,241"/>
  <polyline points="555,247 584,234"/>
  <polyline points="530,201 555,247"/>
  <polyline points="757,248 775,241"/>
  <polyline points="997,118 1001,248"/>
  <polyline points="958,174 1001,248"/>
  <polyline points="190,249 255,220"/>
  <polyline points="190,249 181,222"/>
  <polyline points="835,214 855,249"/>
  <polyline points="1001,248 1002,253"/>
  <polyline points="529,258 555,247"/>
  <polyline points="732,258 757,248"/>
  <polyline points="696,201 732,258"/>
  <polyline points="355,261 424,238"/>
  <polyline points="665,264 633,215"/>
  <polyline points="659,204 682,239 696,264"/>
  <polyline points="973,265 1002,253"/>
  <polyline points="928,185 964,250 973,265"/>
  <polyline points="732,258 740,270"/>
  <polyline points="944,279 973,265"/>
  <polyline points="897,197 925,246 944,279"/>
  <polyline points="625,280 665,264"/>
  <polyline points="584,234 589,243 599,259 609,256 625,280"/>
  <polyline points="296,281 355,261"/>
  <polyline points="296,281 255,220"/>
  <polyline points="757,248 772,273 750,282"/>
  <polyline points="740,270 750,282"/>
  <polyline points="711,283 740,270"/>
  <polyline points="209,287 195,265 190,249"/>
  <polyline points="625,280 607,288"/>
  <polyline points="685,295 711,283"/>
  <polyline points="685,295 665,264"/>
  <polyline points="355,261 358,296"/>
  <polyline points="688,300 685,295"/>
  <polyline points="253,301 296,281"/>
  <polyline points="944,279 886,305"/>
  <polyline points="855,249 878,291 886,305"/>
  <polyline points="132,307 209,287"/>
  <polyline points="226,313 253,301"/>
  <polyline points="226,313 209,287"/>
  <polyline points="657,313 688,300"/>
  <polyline points="266,313 292,300"/>
  <polyline points="266,313 253,301"/>
  <polyline points="367,318 395,301"/>
  <polyline points="358,296 357,305 367,318"/>
  <polyline points="75,321 132,307"/>
  <polyline points="142,230 46,254 75,321"/>
  <polyline points="395,301 413,322"/>
  <polyline points="688,300 705,324"/>
  <polyline points="626,326 657,313"/>
  <polyline points="750,282 776,330"/>
  <polyline points="840,330 813,287 809,287 799,269 855,249"/>
  <polyline points="358,296 286,333"/>
  <polyline points="286,333 266,313"/>
  <polyline points="886,305 902,334"/>
  <polyline points="603,336 626,326"/>
  <polyline points="555,247 603,336"/>
  <polyline points="413,322 425,336"/>
  <polyline points="674,337 705,324"/>
  <polyline points="657,313 674,337"/>
  <polyline points="711,283 739,331 743,335 751,334 754,338 776,330"/>
  <polyline points="384,339 413,322"/>
  <polyline points="367,318 384,339"/>
  <polyline points="395,301 444,289 472,340"/>
  <polyline points="384,339 388,343"/>
  <polyline points="603,336 581,344"/>
  <polyline points="776,330 787,350"/>
  <polyline points="1002,253 1005,350"/>
  <polyline points="425,336 395,352"/>
  <polyline points="388,343 395,352"/>
  <polyline points="306,353 367,318"/>
  <polyline points="306,353 286,333"/>
  <polyline points="902,334 913,353"/>
  <polyline points="441,356 472,340"/>
  <polyline points="425,336 441,356"/>
  <polyline points="989,358 1005,350"/>
  <polyline points="944,279 962,311 989,358"/>
  <polyline points="674,337 688,358"/>
  <polyline points="581,344 544,358"/>
  <polyline points="544,358 517,313 530,307"/>
  <polyline points="388,343 374,351 366,352 346,365"/>
  <polyline points="173,368 226,313"/>
  <polyline points="132,307 148,353 173,368"/>
  <polyline points="738,369 761,359 771,355 787,350"/>
  <polyline points="705,324 738,369"/>
  <polyline points="265,370 226,313"/>
  <polyline points="654,370 626,326"/>
  <polyline points="688,358 656,373"/>
  <polyline points="656,373 654,370"/>
  <polyline points="412,374 441,356"/>
  <polyline points="395,352 412,374"/>
  <polyline points="269,375 306,353"/>
  <polyline points="265,370 269,375"/>
  <polyline points="738,369 744,377"/>
  <polyline points="801,378 833,360 852,350 867,345 872,345 902,334"/>
  <polyline points="787,350 800,375 801,378"/>
  <polyline points="544,358 494,379"/>
  <polyline points="472,340 494,379"/>
  <polyline points="750,386 773,372"/>
  <polyline points="744,377 750,386"/>
  <polyline points="931,387 952,377 989,358"/>
  <polyline points="913,353 931,387"/>
  <polyline points="1005,350 1006,389"/>
  <polyline points="989,358 1006,389"/>
  <polyline points="610,391 654,370"/>
  <polyline points="581,344 590,359 607,386 610,391"/>
  <polyline points="744,377 712,391"/>
  <polyline points="688,358 704,380 712,391"/>
  <polyline points="383,392 412,374"/>
  <polyline points="383,392 364,371"/>
  <polyline points="1006,389 1007,393"/>
  <polyline points="441,356 468,395"/>
  <polyline points="143,399 173,368"/>
  <polyline points="116,360 124,390 143,399"/>
  <polyline points="761,401 801,378"/>
  <polyline points="750,386 761,401"/>
  <polyline points="761,401 759,402"/>
  <polyline points="468,395 474,403"/>
  <polyline points="581,405 610,391"/>
  <polyline points="360,406 383,392"/>
  <polyline points="306,353 360,406"/>
  <polyline points="712,391 677,407 656,373"/>
  <polyline points="443,410 468,395"/>
  <polyline points="412,374 443,410"/>
  <polyline points="570,410 581,405"/>
  <polyline points="557,391 570,410"/>
  <polyline points="733,416 759,402"/>
  <polyline points="712,391 721,404 733,416"/>
  <polyline points="126,417 143,399"/>
  <polyline points="822,418 839,406 850,399 859,390 870,379 893,365 913,353"/>
  <polyline points="801,378 810,396 822,418"/>
  <polyline points="733,416 727,419"/>
  <polyline points="548,420 570,410"/>
  <polyline points="950,421 1007,393"/>
  <polyline points="931,387 937,397 950,421"/>
  <polyline points="126,417 125,412 79,422"/>
  <polyline points="79,422 45,335 75,321"/>
  <polyline points="532,429 548,420"/>
  <polyline points="494,379 516,410 532,429"/>
  <polyline points="727,419 736,429"/>
  <polyline points="822,418 840,430"/>
  <polyline points="269,375 309,431"/>
  <polyline points="1007,393 1008,434"/>
  <polyline points="845,434 857,426 882,412 931,387"/>
  <polyline points="840,430 845,434"/>
  <polyline points="727,419 695,435"/>
  <polyline points="79,422 33,438"/>
  <polyline points="33,438 27,184"/>
  <polyline points="784,440 822,418"/>
  <polyline points="759,402 784,440"/>
  <polyline points="360,406 395,441"/>
  <polyline points="532,429 511,441"/>
  <polyline points="736,429 714,442"/>
  <polyline points="845,434 856,445"/>
  <polyline points="770,448 784,440"/>
  <polyline points="770,448 756,431"/>
  <polyline points="968,453 1008,434"/>
  <polyline points="950,421 968,453"/>
  <polyline points="759,456 766,451 770,448"/>
  <polyline points="736,429 759,456"/>
  <polyline points="184,456 265,370"/>
  <polyline points="184,456 136,427 127,420 126,417"/>
  <polyline points="511,441 484,457"/>
  <polyline points="443,410 484,457"/>
  <polyline points="802,457 840,430"/>
  <polyline points="784,440 802,457"/>
  <polyline points="745,465 759,456"/>
  <polyline points="309,431 227,472"/>
  <polyline points="339,472 395,441"/>
  <polyline points="309,431 339,472"/>
  <polyline points="484,457 459,472"/>
  <polyline points="459,472 401,412"/>
  <polyline points="968,453 982,476"/>
  <polyline points="856,445 816,476"/>
  <polyline points="808,466 816,476"/>
  <polyline points="339,472 343,477"/>
  <polyline points="214,478 184,456"/>
  <polyline points="544,479 511,441"/>
  <polyline points="722,481 739,470 745,465"/>
  <polyline points="722,481 703,462 690,449 664,412"/>
  <polyline points="459,472 439,484"/>
  <polyline points="395,441 439,484"/>
  <polyline points="802,457 767,486"/>
  <polyline points="767,486 745,465"/>
  <polyline points="707,492 715,485 722,481"/>
  <polyline points="968,453 898,493"/>
  <polyline points="856,445 898,493"/>
  <polyline points="704,494 707,492"/>
  <polyline points="610,391 612,394 650,439 680,471 704,494"/>
  <polyline points="816,476 829,494"/>
  <polyline points="439,484 415,499"/>
  <polyline points="829,494 836,506"/>
  <polyline points="491,510 544,479"/>
  <polyline points="491,510 459,472"/>
  <polyline points="767,486 764,490 761,492 753,497 746,502 729,513"/>
  <polyline points="707,492 729,513"/>
  <polyline points="910,515 928,505 945,495 958,488 982,476"/>
  <polyline points="898,493 910,515"/>
  <polyline points="415,499 405,505 371,517"/>
  <polyline points="343,477 365,509 371,517"/>
  <polyline points="836,506 813,518"/>
  <polyline points="729,513 735,518"/>
  <polyline points="671,519 688,507 704,494"/>
  <polyline points="581,405 626,471 650,497 671,519"/>
  <polyline points="581,523 544,479"/>
  <polyline points="122,523 184,456"/>
  <polyline points="122,523 79,422"/>
  <polyline points="848,524 898,493"/>
  <polyline points="836,506 848,524"/>
  <polyline points="371,517 376,524"/>
  <polyline points="35,525 33,438"/>
  <polyline points="244,528 343,477"/>
  <polyline points="363,529 376,524"/>
  <polyline points="376,524 383,534"/>
  <polyline points="923,537 997,499 982,476"/>
  <polyline points="910,515 923,537"/>
  <polyline points="244,528 234,515 192,538"/>
  <polyline points="755,538 829,494"/>
  <polyline points="735,518 755,538"/>
  <polyline points="643,540 671,519"/>
  <polyline points="548,420 587,479 643,540"/>
  <polyline points="755,538 757,540"/>
  <polyline points="1008,434 1012,540"/>
  <polyline points="742,551 739,548 757,540"/>
  <polyline points="314,551 363,529"/>
  <polyline points="673,551 688,538 696,545 735,518"/>
  <polyline points="721,552 739,539"/>
  <polyline points="729,532 713,545 721,552"/>
  <polyline points="923,537 934,553"/>
  <polyline points="337,553 383,534"/>
  <polyline points="529,555 581,523"/>
  <polyline points="529,555 491,510"/>
  <polyline points="982,555 1012,540"/>
  <polyline points="415,499 460,557"/>
  <polyline points="729,560 742,551"/>
  <polyline points="721,552 729,560"/>
  <polyline points="614,561 632,548 643,540"/>
  <polyline points="614,561 581,523"/>
  <polyline points="742,551 753,561"/>
  <polyline points="316,565 337,553"/>
  <polyline points="544,572 529,555"/>
  <polyline points="878,573 934,553"/>
  <polyline points="848,524 866,554 878,573"/>
  <polyline points="75,573 122,523"/>
  <polyline points="75,573 35,525"/>
  <polyline points="945,573 982,555"/>
  <polyline points="934,553 945,573"/>
  <polyline points="192,538 161,556 156,560 157,564 156,566 142,574"/>
  <polyline points="757,540 765,557 775,576"/>
  <polyline points="460,557 414,578"/>
  <polyline points="383,534 414,578"/>
  <polyline points="225,578 192,538"/>
  <polyline points="775,576 750,580 742,571"/>
  <polyline points="635,583 659,567"/>
  <polyline points="635,583 614,561"/>
  <polyline points="514,577 522,585 544,572"/>
  <polyline points="779,586 801,576 833,560"/>
  <polyline points="775,576 779,586"/>
  <polyline points="75,573 37,594"/>
  <polyline points="37,594 35,525"/>
  <polyline points="779,586 782,593 783,595"/>
  <polyline points="565,597 585,582 614,561"/>
  <polyline points="565,597 544,572"/>
  <polyline points="414,578 372,601"/>
  <polyline points="372,601 337,553"/>
  <polyline points="783,595 722,601"/>
  <polyline points="666,584 698,564 708,573 713,575 718,580 722,601"/>
  <polyline points="1012,540 1014,601"/>
  <polyline points="982,555 1014,601"/>
  <polyline points="172,602 225,578"/>
  <polyline points="414,578 434,606"/>
  <polyline points="372,601 360,606"/>
  <polyline points="660,608 722,601"/>
  <polyline points="660,608 635,583"/>
  <polyline points="360,606 356,609"/>
  <polyline points="420,612 434,606"/>
  <polyline points="1014,601 968,619"/>
  <polyline points="945,573 959,598 967,616 968,619"/>
  <polyline points="783,595 790,608 796,620"/>
  <polyline points="360,606 372,621"/>
  <polyline points="398,622 420,612"/>
  <polyline points="1014,601 1014,606 1015,622"/>
  <polyline points="757,624 796,620"/>
  <polyline points="523,627 565,597"/>
  <polyline points="460,557 492,597 523,627"/>
  <polyline points="523,627 515,626"/>
  <polyline points="119,628 172,602"/>
  <polyline points="119,628 75,573"/>
  <polyline points="968,619 969,625 970,632"/>
  <polyline points="580,633 565,597"/>
  <polyline points="580,633 523,627"/>
  <polyline points="599,635 600,614 610,606"/>
  <polyline points="599,635 592,634 580,633"/>
  <polyline points="980,638 1015,622"/>
  <polyline points="970,632 980,638"/>
  <polyline points="970,632 923,641"/>
  <polyline points="878,573 895,599 923,641"/>
  <polyline points="515,626 458,641"/>
  <polyline points="434,606 458,641"/>
  <polyline points="923,641 910,643"/>
  <polyline points="692,645 677,625 660,608"/>
  <polyline points="692,645 599,635"/>
  <polyline points="135,647 119,628"/>
  <polyline points="910,643 880,650"/>
  <polyline points="880,650 842,590"/>
  <polyline points="880,650 872,651"/>
  <polyline points="717,652 698,646 692,645"/>
  <polyline points="458,641 401,656"/>
  <polyline points="872,651 845,656 837,658 821,663"/>
  <polyline points="796,620 799,624 813,646 821,663"/>
  <polyline points="980,638 997,665"/>
  <polyline points="821,663 814,666 805,667 795,667 784,666 765,662 727,655 717,652"/>
  <polyline points="401,656 358,668 348,668"/>
  <polyline points="348,668 244,528"/>
  <polyline points="821,663 824,668"/>
  <polyline points="702,669 717,652"/>
  <polyline points="92,670 135,647"/>
  <polyline points="458,641 460,644 464,650 469,655 477,661 488,668 503,674"/>
  <polyline points="228,675 172,602"/>
  <polyline points="348,668 335,668 303,684"/>
  <polyline points="303,684 225,578"/>
  <polyline points="228,675 197,689 182,676 167,663 154,648"/>
  <polyline points="824,668 770,690"/>
  <polyline points="946,691 997,665"/>
  <polyline points="946,691 910,643"/>
  <polyline points="614,692 626,690 636,689 644,687 651,685 660,683 669,679 679,676 688,673 692,671 702,669"/>
  <polyline points="614,692 580,633"/>
  <polyline points="1015,622 1017,693"/>
  <polyline points="997,665 1017,693"/>
  <polyline points="42,697 92,670"/>
  <polyline points="39,698 42,697"/>
  <polyline points="39,698 37,594"/>
  <polyline points="824,668 836,665 869,705"/>
  <polyline points="770,690 728,707"/>
  <polyline points="702,669 728,707"/>
  <polyline points="871,708 905,691 872,651"/>
  <polyline points="869,705 871,708"/>
  <polyline points="303,684 254,708"/>
  <polyline points="254,708 228,675"/>
  <polyline points="871,708 879,716"/>
  <polyline points="967,719 1017,693"/>
  <polyline points="967,719 946,691"/>
  <polyline points="254,708 215,728"/>
  <polyline points="215,728 135,647"/>
  <polyline points="816,729 869,705"/>
  <polyline points="1017,693 1017,696 1019,734 979,735"/>
  <polyline points="979,735 967,719"/>
  <polyline points="805,735 816,729"/>
  <polyline points="805,735 770,690"/>
  <polyline points="979,735 934,736"/>
  <polyline points="934,736 967,719"/>
  <polyline points="934,736 895,737"/>
  <polyline points="879,716 895,737"/>
  <polyline points="895,737 832,739"/>
  <polyline points="832,739 879,716"/>
  <polyline points="832,739 829,739 823,739"/>
  <polyline points="816,729 823,739"/>
  <polyline points="823,739 796,739"/>
  <polyline points="796,739 805,735"/>
  <polyline points="520,741 540,732"/>
  <polyline points="796,739 751,741"/>
  <polyline points="751,741 728,707"/>
  <polyline points="751,741 644,743"/>
  <polyline points="728,707 644,743"/>
  <polyline points="644,743 614,692"/>
  <polyline points="644,743 550,745"/>
  <polyline points="540,732 550,745"/>
  <polyline points="550,745 523,746"/>
  <polyline points="520,741 523,746"/>
  <polyline points="523,746 469,747"/>
  <polyline points="401,656 469,747"/>
  <polyline points="469,747 409,748"/>
  <polyline points="409,748 348,668"/>
  <polyline points="409,748 289,751"/>
  <polyline points="254,708 289,751"/>
  <polyline points="289,751 239,752"/>
  <polyline points="215,728 239,752"/>
  <polyline points="239,752 160,754"/>
  <polyline points="92,670 160,754"/>
  <polyline points="160,754 90,756"/>
  <polyline points="42,697 90,756"/>
  <polyline points="90,756 40,757 39,698"/>
  <polyline points="527,681 535,664 515,626"/>
  <polyline points="527,681 525,684"/>
  <polyline points="503,674 514,680 525,684"/>
  <polyline points="525,684 537,686 548,689 556,691"/>
  <polyline points="556,691 561,692 570,693 590,693 602,694 609,693 614,692"/>
  <polyline points="562,725 570,722"/>
  <polyline points="556,691 552,708 562,725"/>
  <polyline points="540,732 562,725"/>
  <polyline points="503,674 487,697 520,741"/>
</g>
</svg>